<?xml version="1.0" encoding="UTF-8" standalone="no"?>
<!-- Uploaded to: SVG Repo, www.svgrepo.com, Transformed by: SVG Repo Mixer Tools -->

<svg
   fill="#f6f5f4"
   width="256px"
   height="256px"
   viewBox="-2.6 -2.6 25.20 25.20"
   stroke="#f6f5f4"
   stroke-width="0.0002"
   version="1.1"
   id="svg61"
   sodipodi:docname="keyboard.svg"
   inkscape:version="1.1.2 (0a00cf5339, 2022-02-04)"
   xmlns:inkscape="http://www.inkscape.org/namespaces/inkscape"
   xmlns:sodipodi="http://sodipodi.sourceforge.net/DTD/sodipodi-0.dtd"
   xmlns="http://www.w3.org/2000/svg"
   xmlns:svg="http://www.w3.org/2000/svg">
  <defs
     id="defs65" />
  <sodipodi:namedview
     id="namedview63"
     pagecolor="#ffffff"
     bordercolor="#666666"
     borderopacity="1.0"
     inkscape:pageshadow="2"
     inkscape:pageopacity="0.0"
     inkscape:pagecheckerboard="0"
     showgrid="false"
     inkscape:zoom="3.1640625"
     inkscape:cx="128"
     inkscape:cy="128"
     inkscape:window-width="1920"
     inkscape:window-height="1020"
     inkscape:window-x="0"
     inkscape:window-y="0"
     inkscape:window-maximized="1"
     inkscape:current-layer="svg61" />
  <g
     id="SVGRepo_bgCarrier"
     stroke-width="0"
     transform="translate(0,0), scale(1)"
     style="fill:#800000">
    <rect
       x="-2.6"
       y="-2.6"
       width="25.20"
       height="25.20"
       rx="12.6"
       fill="#cc321d"
       strokewidth="0"
       id="rect54"
       style="fill:#800000" />
  </g>
  <g
     id="SVGRepo_tracerCarrier"
     stroke-linecap="round"
     stroke-linejoin="round"
     stroke="#CCCCCC"
     stroke-width="0.48" />
  <g
     id="SVGRepo_iconCarrier">
    <path
       d="M0 6c0-1.1.9-2 2-2h16a2 2 0 0 1 2 2v8a2 2 0 0 1-2 2H2a2 2 0 0 1-2-2V6zm2 0v2h2V6H2zm1 3v2h2V9H3zm-1 3v2h2v-2H2zm3 0v2h10v-2H5zm11 0v2h2v-2h-2zM6 9v2h2V9H6zm3 0v2h2V9H9zm3 0v2h2V9h-2zm3 0v2h2V9h-2zM5 6v2h2V6H5zm3 0v2h2V6H8zm3 0v2h2V6h-2zm3 0v2h4V6h-4z"
       id="path58" />
  </g>
</svg>
